<?xml version="1.0" encoding="UTF-8" standalone="no"?>
<!DOCTYPE svg PUBLIC "-//W3C//DTD SVG 1.1//EN" "http://www.w3.org/Graphics/SVG/1.1/DTD/svg11.dtd">
<svg width="100%" height="100%" viewBox="0 0 195 154" version="1.1" xmlns="http://www.w3.org/2000/svg" xmlns:xlink="http://www.w3.org/1999/xlink" xml:space="preserve" xmlns:serif="http://www.serif.com/" style="fill-rule:evenodd;clip-rule:evenodd;stroke-linecap:round;stroke-linejoin:round;stroke-miterlimit:1.5;">
    <g transform="matrix(1,0,0,1,-153.343,-169.675)">
        <g transform="matrix(0.597768,0,0,1.3561,102.799,-110.502)">
            <g transform="matrix(51.2891,0,0,22.6083,83.1273,251.955)">
                <path d="M0.667,-0L0.486,-0L0.377,-0.18C0.369,-0.194 0.361,-0.206 0.354,-0.217C0.347,-0.228 0.339,-0.237 0.331,-0.244C0.324,-0.252 0.316,-0.258 0.307,-0.262C0.299,-0.266 0.29,-0.268 0.28,-0.268L0.238,-0.268L0.238,-0L0.08,-0L0.08,-0.7L0.33,-0.7C0.5,-0.7 0.585,-0.637 0.585,-0.51C0.585,-0.485 0.581,-0.463 0.574,-0.442C0.566,-0.421 0.556,-0.403 0.542,-0.386C0.528,-0.37 0.512,-0.355 0.492,-0.343C0.473,-0.331 0.451,-0.322 0.428,-0.315L0.428,-0.313C0.438,-0.31 0.448,-0.304 0.458,-0.297C0.468,-0.29 0.477,-0.281 0.486,-0.271C0.495,-0.262 0.504,-0.251 0.512,-0.24C0.521,-0.229 0.528,-0.218 0.535,-0.207L0.667,-0ZM0.238,-0.582L0.238,-0.387L0.306,-0.387C0.34,-0.387 0.367,-0.397 0.388,-0.417C0.409,-0.436 0.419,-0.461 0.419,-0.49C0.419,-0.551 0.382,-0.582 0.309,-0.582L0.238,-0.582Z" style="fill-rule:nonzero;"/>
            </g>
            <g transform="matrix(51.2891,0,0,22.6083,115.333,251.955)">
                <path d="M0.514,-0.206L0.188,-0.206C0.193,-0.133 0.239,-0.097 0.325,-0.097C0.38,-0.097 0.429,-0.11 0.47,-0.136L0.47,-0.025C0.424,-0 0.364,0.012 0.29,0.012C0.209,0.012 0.147,-0.01 0.102,-0.055C0.057,-0.1 0.035,-0.162 0.035,-0.242C0.035,-0.325 0.059,-0.391 0.107,-0.439C0.156,-0.488 0.215,-0.512 0.285,-0.512C0.358,-0.512 0.414,-0.491 0.454,-0.447C0.494,-0.404 0.514,-0.345 0.514,-0.271L0.514,-0.206ZM0.371,-0.301C0.371,-0.372 0.342,-0.408 0.284,-0.408C0.259,-0.408 0.238,-0.398 0.22,-0.377C0.202,-0.357 0.191,-0.331 0.187,-0.301L0.371,-0.301Z" style="fill-rule:nonzero;"/>
            </g>
            <g transform="matrix(51.2891,0,0,22.6083,143.081,251.955)">
                <path d="M0.221,-0.058L0.219,-0.058L0.219,0.23L0.065,0.23L0.065,-0.5L0.219,-0.5L0.219,-0.425L0.221,-0.425C0.259,-0.483 0.313,-0.512 0.382,-0.512C0.447,-0.512 0.497,-0.49 0.532,-0.446C0.567,-0.401 0.585,-0.341 0.585,-0.264C0.585,-0.181 0.564,-0.114 0.523,-0.063C0.482,-0.013 0.427,0.012 0.359,0.012C0.299,0.012 0.253,-0.011 0.221,-0.058ZM0.217,-0.263L0.217,-0.223C0.217,-0.189 0.226,-0.16 0.244,-0.139C0.262,-0.117 0.286,-0.106 0.316,-0.106C0.351,-0.106 0.378,-0.12 0.398,-0.147C0.417,-0.174 0.427,-0.212 0.427,-0.262C0.427,-0.35 0.393,-0.394 0.324,-0.394C0.293,-0.394 0.267,-0.382 0.247,-0.358C0.227,-0.334 0.217,-0.303 0.217,-0.263Z" style="fill-rule:nonzero;"/>
            </g>
            <g transform="matrix(51.2891,0,0,22.6083,174.887,251.955)">
                <path d="M0.303,0.012C0.22,0.012 0.154,-0.011 0.107,-0.058C0.059,-0.105 0.035,-0.168 0.035,-0.248C0.035,-0.331 0.06,-0.395 0.109,-0.442C0.159,-0.489 0.226,-0.512 0.31,-0.512C0.393,-0.512 0.458,-0.489 0.505,-0.442C0.553,-0.395 0.576,-0.334 0.576,-0.257C0.576,-0.174 0.552,-0.108 0.503,-0.06C0.455,-0.012 0.388,0.012 0.303,0.012ZM0.307,-0.394C0.271,-0.394 0.242,-0.382 0.222,-0.356C0.202,-0.331 0.192,-0.296 0.192,-0.25C0.192,-0.154 0.231,-0.106 0.308,-0.106C0.382,-0.106 0.419,-0.155 0.419,-0.254C0.419,-0.347 0.382,-0.394 0.307,-0.394Z" style="fill-rule:nonzero;"/>
            </g>
            <g transform="matrix(51.2891,0,0,22.6083,206.241,251.955)">
                <path d="M0.391,-0.361C0.373,-0.371 0.351,-0.376 0.326,-0.376C0.293,-0.376 0.266,-0.364 0.248,-0.339C0.229,-0.315 0.219,-0.281 0.219,-0.239L0.219,-0L0.065,-0L0.065,-0.5L0.219,-0.5L0.219,-0.407L0.221,-0.407C0.246,-0.475 0.29,-0.509 0.353,-0.509C0.369,-0.509 0.382,-0.507 0.391,-0.503L0.391,-0.361Z" style="fill-rule:nonzero;"/>
            </g>
            <g transform="matrix(51.2891,0,0,22.6083,228.129,251.955)">
                <path d="M0.367,-0.006C0.344,0.006 0.31,0.012 0.264,0.012C0.155,0.012 0.101,-0.044 0.101,-0.157L0.101,-0.386L0.02,-0.386L0.02,-0.5L0.101,-0.5L0.101,-0.608L0.255,-0.652L0.255,-0.5L0.367,-0.5L0.367,-0.386L0.255,-0.386L0.255,-0.184C0.255,-0.132 0.276,-0.106 0.317,-0.106C0.333,-0.106 0.35,-0.111 0.367,-0.12L0.367,-0.006Z" style="fill-rule:nonzero;"/>
            </g>
            <g transform="matrix(51.2891,0,0,22.6083,262.238,251.955)">
                <path d="M0.481,-0L0.335,-0L0.335,-0.072L0.333,-0.072C0.299,-0.016 0.25,0.012 0.184,0.012C0.136,0.012 0.097,-0.002 0.07,-0.029C0.042,-0.057 0.028,-0.093 0.028,-0.139C0.028,-0.236 0.085,-0.292 0.2,-0.307L0.336,-0.325C0.336,-0.38 0.306,-0.407 0.247,-0.407C0.188,-0.407 0.131,-0.389 0.077,-0.354L0.077,-0.47C0.099,-0.481 0.128,-0.491 0.165,-0.5C0.203,-0.508 0.236,-0.512 0.267,-0.512C0.41,-0.512 0.481,-0.441 0.481,-0.299L0.481,-0ZM0.336,-0.203L0.336,-0.237L0.245,-0.225C0.195,-0.219 0.17,-0.196 0.17,-0.157C0.17,-0.14 0.176,-0.125 0.188,-0.114C0.2,-0.103 0.217,-0.097 0.238,-0.097C0.267,-0.097 0.29,-0.107 0.309,-0.127C0.327,-0.147 0.336,-0.173 0.336,-0.203Z" style="fill-rule:nonzero;"/>
            </g>
            <g transform="matrix(51.2891,0,0,22.6083,83.1273,274.564)">
                <path d="M0.221,-0.058L0.219,-0.058L0.219,0.23L0.065,0.23L0.065,-0.5L0.219,-0.5L0.219,-0.425L0.221,-0.425C0.259,-0.483 0.313,-0.512 0.382,-0.512C0.447,-0.512 0.497,-0.49 0.532,-0.446C0.567,-0.401 0.585,-0.341 0.585,-0.264C0.585,-0.181 0.564,-0.114 0.523,-0.063C0.482,-0.013 0.427,0.012 0.359,0.012C0.299,0.012 0.253,-0.011 0.221,-0.058ZM0.217,-0.263L0.217,-0.223C0.217,-0.189 0.226,-0.16 0.244,-0.139C0.262,-0.117 0.286,-0.106 0.316,-0.106C0.351,-0.106 0.378,-0.12 0.398,-0.147C0.417,-0.174 0.427,-0.212 0.427,-0.262C0.427,-0.35 0.393,-0.394 0.324,-0.394C0.293,-0.394 0.267,-0.382 0.247,-0.358C0.227,-0.334 0.217,-0.303 0.217,-0.263Z" style="fill-rule:nonzero;"/>
            </g>
            <g transform="matrix(51.2891,0,0,22.6083,114.933,274.564)">
                <path d="M0.391,-0.361C0.373,-0.371 0.351,-0.376 0.326,-0.376C0.293,-0.376 0.266,-0.364 0.248,-0.339C0.229,-0.315 0.219,-0.281 0.219,-0.239L0.219,-0L0.065,-0L0.065,-0.5L0.219,-0.5L0.219,-0.407L0.221,-0.407C0.246,-0.475 0.29,-0.509 0.353,-0.509C0.369,-0.509 0.382,-0.507 0.391,-0.503L0.391,-0.361Z" style="fill-rule:nonzero;"/>
            </g>
            <g transform="matrix(51.2891,0,0,22.6083,135.143,274.564)">
                <path d="M0.303,0.012C0.22,0.012 0.154,-0.011 0.107,-0.058C0.059,-0.105 0.035,-0.168 0.035,-0.248C0.035,-0.331 0.06,-0.395 0.109,-0.442C0.159,-0.489 0.226,-0.512 0.31,-0.512C0.393,-0.512 0.458,-0.489 0.505,-0.442C0.553,-0.395 0.576,-0.334 0.576,-0.257C0.576,-0.174 0.552,-0.108 0.503,-0.06C0.455,-0.012 0.388,0.012 0.303,0.012ZM0.307,-0.394C0.271,-0.394 0.242,-0.382 0.222,-0.356C0.202,-0.331 0.192,-0.296 0.192,-0.25C0.192,-0.154 0.231,-0.106 0.308,-0.106C0.382,-0.106 0.419,-0.155 0.419,-0.254C0.419,-0.347 0.382,-0.394 0.307,-0.394Z" style="fill-rule:nonzero;"/>
            </g>
            <g transform="matrix(51.2891,0,0,22.6083,166.497,274.564)">
                <path d="M0.221,-0.058L0.219,-0.058L0.219,-0L0.065,-0L0.065,-0.74L0.219,-0.74L0.219,-0.425L0.221,-0.425C0.259,-0.483 0.313,-0.512 0.384,-0.512C0.448,-0.512 0.498,-0.49 0.533,-0.446C0.568,-0.402 0.585,-0.341 0.585,-0.264C0.585,-0.181 0.565,-0.114 0.524,-0.063C0.483,-0.013 0.429,0.012 0.361,0.012C0.299,0.012 0.253,-0.011 0.221,-0.058ZM0.217,-0.269L0.217,-0.218C0.217,-0.186 0.226,-0.159 0.245,-0.138C0.263,-0.117 0.287,-0.106 0.316,-0.106C0.351,-0.106 0.378,-0.12 0.398,-0.147C0.417,-0.174 0.427,-0.212 0.427,-0.262C0.427,-0.304 0.418,-0.336 0.4,-0.359C0.382,-0.382 0.357,-0.394 0.324,-0.394C0.293,-0.394 0.268,-0.382 0.247,-0.359C0.227,-0.336 0.217,-0.306 0.217,-0.269Z" style="fill-rule:nonzero;"/>
            </g>
            <g transform="matrix(51.2891,0,0,22.6083,198.302,274.564)">
                <rect x="0.065" y="-0.74" width="0.154" height="0.74" style="fill-rule:nonzero;"/>
            </g>
            <g transform="matrix(51.2891,0,0,22.6083,212.878,274.564)">
                <path d="M0.514,-0.206L0.188,-0.206C0.193,-0.133 0.239,-0.097 0.325,-0.097C0.38,-0.097 0.429,-0.11 0.47,-0.136L0.47,-0.025C0.424,-0 0.364,0.012 0.29,0.012C0.209,0.012 0.147,-0.01 0.102,-0.055C0.057,-0.1 0.035,-0.162 0.035,-0.242C0.035,-0.325 0.059,-0.391 0.107,-0.439C0.156,-0.488 0.215,-0.512 0.285,-0.512C0.358,-0.512 0.414,-0.491 0.454,-0.447C0.494,-0.404 0.514,-0.345 0.514,-0.271L0.514,-0.206ZM0.371,-0.301C0.371,-0.372 0.342,-0.408 0.284,-0.408C0.259,-0.408 0.238,-0.398 0.22,-0.377C0.202,-0.357 0.191,-0.331 0.187,-0.301L0.371,-0.301Z" style="fill-rule:nonzero;"/>
            </g>
            <g transform="matrix(51.2891,0,0,22.6083,240.626,274.564)">
                <path d="M0.859,-0L0.705,-0L0.705,-0.285C0.705,-0.358 0.678,-0.394 0.625,-0.394C0.6,-0.394 0.579,-0.383 0.563,-0.361C0.547,-0.34 0.539,-0.312 0.539,-0.28L0.539,-0L0.385,-0L0.385,-0.288C0.385,-0.359 0.359,-0.394 0.306,-0.394C0.28,-0.394 0.259,-0.384 0.243,-0.363C0.227,-0.342 0.219,-0.314 0.219,-0.278L0.219,-0L0.065,-0L0.065,-0.5L0.219,-0.5L0.219,-0.422L0.221,-0.422C0.237,-0.449 0.26,-0.47 0.288,-0.487C0.317,-0.504 0.349,-0.512 0.383,-0.512C0.453,-0.512 0.502,-0.481 0.528,-0.419C0.566,-0.481 0.622,-0.512 0.696,-0.512C0.805,-0.512 0.859,-0.445 0.859,-0.311L0.859,-0Z" style="fill-rule:nonzero;"/>
            </g>
            <g transform="matrix(51.2891,0,0,22.6083,83.1273,297.172)">
                <path d="M0.303,0.012C0.22,0.012 0.154,-0.011 0.107,-0.058C0.059,-0.105 0.035,-0.168 0.035,-0.248C0.035,-0.331 0.06,-0.395 0.109,-0.442C0.159,-0.489 0.226,-0.512 0.31,-0.512C0.393,-0.512 0.458,-0.489 0.505,-0.442C0.553,-0.395 0.576,-0.334 0.576,-0.257C0.576,-0.174 0.552,-0.108 0.503,-0.06C0.455,-0.012 0.388,0.012 0.303,0.012ZM0.307,-0.394C0.271,-0.394 0.242,-0.382 0.222,-0.356C0.202,-0.331 0.192,-0.296 0.192,-0.25C0.192,-0.154 0.231,-0.106 0.308,-0.106C0.382,-0.106 0.419,-0.155 0.419,-0.254C0.419,-0.347 0.382,-0.394 0.307,-0.394Z" style="fill-rule:nonzero;"/>
            </g>
            <g transform="matrix(51.2891,0,0,22.6083,114.482,297.172)">
                <path d="M0.391,-0.361C0.373,-0.371 0.351,-0.376 0.326,-0.376C0.293,-0.376 0.266,-0.364 0.248,-0.339C0.229,-0.315 0.219,-0.281 0.219,-0.239L0.219,-0L0.065,-0L0.065,-0.5L0.219,-0.5L0.219,-0.407L0.221,-0.407C0.246,-0.475 0.29,-0.509 0.353,-0.509C0.369,-0.509 0.382,-0.507 0.391,-0.503L0.391,-0.361Z" style="fill-rule:nonzero;"/>
            </g>
            <g transform="matrix(51.2891,0,0,22.6083,149.042,297.172)">
                <path d="M0.032,-0.013L0.032,-0.138C0.058,-0.123 0.083,-0.111 0.108,-0.104C0.133,-0.097 0.157,-0.093 0.18,-0.093C0.207,-0.093 0.229,-0.097 0.244,-0.104C0.26,-0.111 0.268,-0.123 0.268,-0.138C0.268,-0.148 0.264,-0.156 0.257,-0.163C0.25,-0.169 0.241,-0.175 0.23,-0.18C0.219,-0.185 0.206,-0.189 0.193,-0.193C0.18,-0.197 0.167,-0.201 0.154,-0.206C0.134,-0.214 0.117,-0.222 0.102,-0.23C0.087,-0.239 0.074,-0.249 0.064,-0.26C0.053,-0.272 0.046,-0.285 0.04,-0.3C0.035,-0.315 0.032,-0.333 0.032,-0.353C0.032,-0.381 0.038,-0.405 0.051,-0.425C0.063,-0.445 0.079,-0.462 0.099,-0.475C0.12,-0.488 0.143,-0.497 0.169,-0.503C0.195,-0.509 0.223,-0.512 0.251,-0.512C0.273,-0.512 0.296,-0.51 0.318,-0.507C0.341,-0.504 0.364,-0.499 0.386,-0.492L0.386,-0.373C0.366,-0.384 0.345,-0.393 0.323,-0.399C0.301,-0.404 0.279,-0.407 0.257,-0.407C0.247,-0.407 0.238,-0.406 0.229,-0.405C0.22,-0.403 0.212,-0.4 0.205,-0.397C0.198,-0.393 0.193,-0.389 0.189,-0.384C0.185,-0.378 0.183,-0.372 0.183,-0.365C0.183,-0.356 0.186,-0.348 0.192,-0.342C0.198,-0.335 0.205,-0.33 0.215,-0.325C0.224,-0.32 0.235,-0.316 0.246,-0.312C0.258,-0.309 0.269,-0.305 0.281,-0.301C0.301,-0.294 0.32,-0.286 0.336,-0.277C0.353,-0.269 0.367,-0.259 0.379,-0.248C0.391,-0.236 0.4,-0.223 0.406,-0.208C0.413,-0.192 0.416,-0.174 0.416,-0.153C0.416,-0.123 0.41,-0.098 0.397,-0.077C0.384,-0.056 0.367,-0.039 0.345,-0.026C0.324,-0.012 0.3,-0.003 0.272,0.003C0.244,0.009 0.215,0.012 0.185,0.012C0.13,0.012 0.079,0.004 0.032,-0.013Z" style="fill-rule:nonzero;"/>
            </g>
            <g transform="matrix(51.2891,0,0,22.6083,171.606,297.172)">
                <path d="M0.54,-0L0.386,-0L0.386,-0.076L0.384,-0.076C0.346,-0.017 0.295,0.012 0.231,0.012C0.115,0.012 0.057,-0.058 0.057,-0.198L0.057,-0.5L0.211,-0.5L0.211,-0.212C0.211,-0.141 0.239,-0.106 0.295,-0.106C0.323,-0.106 0.345,-0.116 0.361,-0.135C0.378,-0.154 0.386,-0.181 0.386,-0.214L0.386,-0.5L0.54,-0.5L0.54,-0Z" style="fill-rule:nonzero;"/>
            </g>
            <g transform="matrix(51.2891,0,0,22.6083,202.635,297.172)">
                <path d="M0.555,-0.057C0.555,0.036 0.528,0.108 0.475,0.158C0.421,0.209 0.343,0.235 0.241,0.235C0.174,0.235 0.12,0.225 0.081,0.206L0.081,0.076C0.132,0.106 0.184,0.121 0.237,0.121C0.289,0.121 0.329,0.107 0.358,0.08C0.387,0.052 0.401,0.015 0.401,-0.032L0.401,-0.072L0.399,-0.072C0.364,-0.016 0.312,0.012 0.243,0.012C0.179,0.012 0.129,-0.01 0.091,-0.055C0.054,-0.1 0.035,-0.16 0.035,-0.236C0.035,-0.32 0.056,-0.388 0.098,-0.438C0.139,-0.487 0.194,-0.512 0.262,-0.512C0.323,-0.512 0.369,-0.489 0.399,-0.442L0.401,-0.442L0.401,-0.5L0.555,-0.5L0.555,-0.057ZM0.403,-0.24L0.403,-0.28C0.403,-0.311 0.393,-0.338 0.375,-0.361C0.356,-0.383 0.332,-0.394 0.302,-0.394C0.268,-0.394 0.241,-0.381 0.221,-0.354C0.202,-0.327 0.192,-0.29 0.192,-0.241C0.192,-0.2 0.201,-0.167 0.22,-0.142C0.238,-0.118 0.264,-0.106 0.296,-0.106C0.328,-0.106 0.354,-0.118 0.373,-0.143C0.393,-0.167 0.403,-0.2 0.403,-0.24Z" style="fill-rule:nonzero;"/>
            </g>
            <g transform="matrix(51.2891,0,0,22.6083,234.251,297.172)">
                <path d="M0.555,-0.057C0.555,0.036 0.528,0.108 0.475,0.158C0.421,0.209 0.343,0.235 0.241,0.235C0.174,0.235 0.12,0.225 0.081,0.206L0.081,0.076C0.132,0.106 0.184,0.121 0.237,0.121C0.289,0.121 0.329,0.107 0.358,0.08C0.387,0.052 0.401,0.015 0.401,-0.032L0.401,-0.072L0.399,-0.072C0.364,-0.016 0.312,0.012 0.243,0.012C0.179,0.012 0.129,-0.01 0.091,-0.055C0.054,-0.1 0.035,-0.16 0.035,-0.236C0.035,-0.32 0.056,-0.388 0.098,-0.438C0.139,-0.487 0.194,-0.512 0.262,-0.512C0.323,-0.512 0.369,-0.489 0.399,-0.442L0.401,-0.442L0.401,-0.5L0.555,-0.5L0.555,-0.057ZM0.403,-0.24L0.403,-0.28C0.403,-0.311 0.393,-0.338 0.375,-0.361C0.356,-0.383 0.332,-0.394 0.302,-0.394C0.268,-0.394 0.241,-0.381 0.221,-0.354C0.202,-0.327 0.192,-0.29 0.192,-0.241C0.192,-0.2 0.201,-0.167 0.22,-0.142C0.238,-0.118 0.264,-0.106 0.296,-0.106C0.328,-0.106 0.354,-0.118 0.373,-0.143C0.393,-0.167 0.403,-0.2 0.403,-0.24Z" style="fill-rule:nonzero;"/>
            </g>
            <g transform="matrix(51.2891,0,0,22.6083,265.42,297.172)">
                <path d="M0.514,-0.206L0.188,-0.206C0.193,-0.133 0.239,-0.097 0.325,-0.097C0.38,-0.097 0.429,-0.11 0.47,-0.136L0.47,-0.025C0.424,-0 0.364,0.012 0.29,0.012C0.209,0.012 0.147,-0.01 0.102,-0.055C0.057,-0.1 0.035,-0.162 0.035,-0.242C0.035,-0.325 0.059,-0.391 0.107,-0.439C0.156,-0.488 0.215,-0.512 0.285,-0.512C0.358,-0.512 0.414,-0.491 0.454,-0.447C0.494,-0.404 0.514,-0.345 0.514,-0.271L0.514,-0.206ZM0.371,-0.301C0.371,-0.372 0.342,-0.408 0.284,-0.408C0.259,-0.408 0.238,-0.398 0.22,-0.377C0.202,-0.357 0.191,-0.331 0.187,-0.301L0.371,-0.301Z" style="fill-rule:nonzero;"/>
            </g>
            <g transform="matrix(51.2891,0,0,22.6083,293.169,297.172)">
                <path d="M0.032,-0.013L0.032,-0.138C0.058,-0.123 0.083,-0.111 0.108,-0.104C0.133,-0.097 0.157,-0.093 0.18,-0.093C0.207,-0.093 0.229,-0.097 0.244,-0.104C0.26,-0.111 0.268,-0.123 0.268,-0.138C0.268,-0.148 0.264,-0.156 0.257,-0.163C0.25,-0.169 0.241,-0.175 0.23,-0.18C0.219,-0.185 0.206,-0.189 0.193,-0.193C0.18,-0.197 0.167,-0.201 0.154,-0.206C0.134,-0.214 0.117,-0.222 0.102,-0.23C0.087,-0.239 0.074,-0.249 0.064,-0.26C0.053,-0.272 0.046,-0.285 0.04,-0.3C0.035,-0.315 0.032,-0.333 0.032,-0.353C0.032,-0.381 0.038,-0.405 0.051,-0.425C0.063,-0.445 0.079,-0.462 0.099,-0.475C0.12,-0.488 0.143,-0.497 0.169,-0.503C0.195,-0.509 0.223,-0.512 0.251,-0.512C0.273,-0.512 0.296,-0.51 0.318,-0.507C0.341,-0.504 0.364,-0.499 0.386,-0.492L0.386,-0.373C0.366,-0.384 0.345,-0.393 0.323,-0.399C0.301,-0.404 0.279,-0.407 0.257,-0.407C0.247,-0.407 0.238,-0.406 0.229,-0.405C0.22,-0.403 0.212,-0.4 0.205,-0.397C0.198,-0.393 0.193,-0.389 0.189,-0.384C0.185,-0.378 0.183,-0.372 0.183,-0.365C0.183,-0.356 0.186,-0.348 0.192,-0.342C0.198,-0.335 0.205,-0.33 0.215,-0.325C0.224,-0.32 0.235,-0.316 0.246,-0.312C0.258,-0.309 0.269,-0.305 0.281,-0.301C0.301,-0.294 0.32,-0.286 0.336,-0.277C0.353,-0.269 0.367,-0.259 0.379,-0.248C0.391,-0.236 0.4,-0.223 0.406,-0.208C0.413,-0.192 0.416,-0.174 0.416,-0.153C0.416,-0.123 0.41,-0.098 0.397,-0.077C0.384,-0.056 0.367,-0.039 0.345,-0.026C0.324,-0.012 0.3,-0.003 0.272,0.003C0.244,0.009 0.215,0.012 0.185,0.012C0.13,0.012 0.079,0.004 0.032,-0.013Z" style="fill-rule:nonzero;"/>
            </g>
            <g transform="matrix(51.2891,0,0,22.6083,315.733,297.172)">
                <path d="M0.367,-0.006C0.344,0.006 0.31,0.012 0.264,0.012C0.155,0.012 0.101,-0.044 0.101,-0.157L0.101,-0.386L0.02,-0.386L0.02,-0.5L0.101,-0.5L0.101,-0.608L0.255,-0.652L0.255,-0.5L0.367,-0.5L0.367,-0.386L0.255,-0.386L0.255,-0.184C0.255,-0.132 0.276,-0.106 0.317,-0.106C0.333,-0.106 0.35,-0.111 0.367,-0.12L0.367,-0.006Z" style="fill-rule:nonzero;"/>
            </g>
            <g transform="matrix(51.2891,0,0,22.6083,83.1273,319.78)">
                <path d="M0.481,-0L0.335,-0L0.335,-0.072L0.333,-0.072C0.299,-0.016 0.25,0.012 0.184,0.012C0.136,0.012 0.097,-0.002 0.07,-0.029C0.042,-0.057 0.028,-0.093 0.028,-0.139C0.028,-0.236 0.085,-0.292 0.2,-0.307L0.336,-0.325C0.336,-0.38 0.306,-0.407 0.247,-0.407C0.188,-0.407 0.131,-0.389 0.077,-0.354L0.077,-0.47C0.099,-0.481 0.128,-0.491 0.165,-0.5C0.203,-0.508 0.236,-0.512 0.267,-0.512C0.41,-0.512 0.481,-0.441 0.481,-0.299L0.481,-0ZM0.336,-0.203L0.336,-0.237L0.245,-0.225C0.195,-0.219 0.17,-0.196 0.17,-0.157C0.17,-0.14 0.176,-0.125 0.188,-0.114C0.2,-0.103 0.217,-0.097 0.238,-0.097C0.267,-0.097 0.29,-0.107 0.309,-0.127C0.327,-0.147 0.336,-0.173 0.336,-0.203Z" style="fill-rule:nonzero;"/>
            </g>
            <g transform="matrix(51.2891,0,0,22.6083,124.875,319.78)">
                <path d="M0.391,-0.622C0.371,-0.63 0.352,-0.634 0.334,-0.634C0.285,-0.634 0.26,-0.607 0.26,-0.553L0.26,-0.5L0.374,-0.5L0.374,-0.386L0.26,-0.386L0.26,-0L0.106,-0L0.106,-0.386L0.022,-0.386L0.022,-0.5L0.106,-0.5L0.106,-0.562C0.106,-0.619 0.125,-0.665 0.162,-0.7C0.199,-0.735 0.249,-0.752 0.313,-0.752C0.344,-0.752 0.37,-0.749 0.391,-0.742L0.391,-0.622Z" style="fill-rule:nonzero;"/>
            </g>
            <g transform="matrix(51.2891,0,0,22.6083,144.534,319.78)">
                <path d="M0.514,-0.206L0.188,-0.206C0.193,-0.133 0.239,-0.097 0.325,-0.097C0.38,-0.097 0.429,-0.11 0.47,-0.136L0.47,-0.025C0.424,-0 0.364,0.012 0.29,0.012C0.209,0.012 0.147,-0.01 0.102,-0.055C0.057,-0.1 0.035,-0.162 0.035,-0.242C0.035,-0.325 0.059,-0.391 0.107,-0.439C0.156,-0.488 0.215,-0.512 0.285,-0.512C0.358,-0.512 0.414,-0.491 0.454,-0.447C0.494,-0.404 0.514,-0.345 0.514,-0.271L0.514,-0.206ZM0.371,-0.301C0.371,-0.372 0.342,-0.408 0.284,-0.408C0.259,-0.408 0.238,-0.398 0.22,-0.377C0.202,-0.357 0.191,-0.331 0.187,-0.301L0.371,-0.301Z" style="fill-rule:nonzero;"/>
            </g>
            <g transform="matrix(51.2891,0,0,22.6083,172.282,319.78)">
                <path d="M0.481,-0L0.335,-0L0.335,-0.072L0.333,-0.072C0.299,-0.016 0.25,0.012 0.184,0.012C0.136,0.012 0.097,-0.002 0.07,-0.029C0.042,-0.057 0.028,-0.093 0.028,-0.139C0.028,-0.236 0.085,-0.292 0.2,-0.307L0.336,-0.325C0.336,-0.38 0.306,-0.407 0.247,-0.407C0.188,-0.407 0.131,-0.389 0.077,-0.354L0.077,-0.47C0.099,-0.481 0.128,-0.491 0.165,-0.5C0.203,-0.508 0.236,-0.512 0.267,-0.512C0.41,-0.512 0.481,-0.441 0.481,-0.299L0.481,-0ZM0.336,-0.203L0.336,-0.237L0.245,-0.225C0.195,-0.219 0.17,-0.196 0.17,-0.157C0.17,-0.14 0.176,-0.125 0.188,-0.114C0.2,-0.103 0.217,-0.097 0.238,-0.097C0.267,-0.097 0.29,-0.107 0.309,-0.127C0.327,-0.147 0.336,-0.173 0.336,-0.203Z" style="fill-rule:nonzero;"/>
            </g>
            <g transform="matrix(51.2891,0,0,22.6083,199.88,319.78)">
                <path d="M0.367,-0.006C0.344,0.006 0.31,0.012 0.264,0.012C0.155,0.012 0.101,-0.044 0.101,-0.157L0.101,-0.386L0.02,-0.386L0.02,-0.5L0.101,-0.5L0.101,-0.608L0.255,-0.652L0.255,-0.5L0.367,-0.5L0.367,-0.386L0.255,-0.386L0.255,-0.184C0.255,-0.132 0.276,-0.106 0.317,-0.106C0.333,-0.106 0.35,-0.111 0.367,-0.12L0.367,-0.006Z" style="fill-rule:nonzero;"/>
            </g>
            <g transform="matrix(51.2891,0,0,22.6083,219.84,319.78)">
                <path d="M0.54,-0L0.386,-0L0.386,-0.076L0.384,-0.076C0.346,-0.017 0.295,0.012 0.231,0.012C0.115,0.012 0.057,-0.058 0.057,-0.198L0.057,-0.5L0.211,-0.5L0.211,-0.212C0.211,-0.141 0.239,-0.106 0.295,-0.106C0.323,-0.106 0.345,-0.116 0.361,-0.135C0.378,-0.154 0.386,-0.181 0.386,-0.214L0.386,-0.5L0.54,-0.5L0.54,-0Z" style="fill-rule:nonzero;"/>
            </g>
            <g transform="matrix(51.2891,0,0,22.6083,250.869,319.78)">
                <path d="M0.391,-0.361C0.373,-0.371 0.351,-0.376 0.326,-0.376C0.293,-0.376 0.266,-0.364 0.248,-0.339C0.229,-0.315 0.219,-0.281 0.219,-0.239L0.219,-0L0.065,-0L0.065,-0.5L0.219,-0.5L0.219,-0.407L0.221,-0.407C0.246,-0.475 0.29,-0.509 0.353,-0.509C0.369,-0.509 0.382,-0.507 0.391,-0.503L0.391,-0.361Z" style="fill-rule:nonzero;"/>
            </g>
            <g transform="matrix(51.2891,0,0,22.6083,271.079,319.78)">
                <path d="M0.514,-0.206L0.188,-0.206C0.193,-0.133 0.239,-0.097 0.325,-0.097C0.38,-0.097 0.429,-0.11 0.47,-0.136L0.47,-0.025C0.424,-0 0.364,0.012 0.29,0.012C0.209,0.012 0.147,-0.01 0.102,-0.055C0.057,-0.1 0.035,-0.162 0.035,-0.242C0.035,-0.325 0.059,-0.391 0.107,-0.439C0.156,-0.488 0.215,-0.512 0.285,-0.512C0.358,-0.512 0.414,-0.491 0.454,-0.447C0.494,-0.404 0.514,-0.345 0.514,-0.271L0.514,-0.206ZM0.371,-0.301C0.371,-0.372 0.342,-0.408 0.284,-0.408C0.259,-0.408 0.238,-0.398 0.22,-0.377C0.202,-0.357 0.191,-0.331 0.187,-0.301L0.371,-0.301Z" style="fill-rule:nonzero;"/>
            </g>
        </g>
        <g transform="matrix(1.30029,0.419948,-0.419948,1.30029,43.9587,-176.521)">
            <path d="M268.423,239.149C278.909,223.245 285.037,196.175 270.228,180.948" style="fill:none;stroke:black;stroke-width:3.76px;"/>
            <path d="M270.228,180.948C266.962,187.245 265.181,195.023 262.842,201.726" style="fill:none;stroke:black;stroke-width:3.76px;"/>
            <path d="M270.228,180.948C277.949,182.053 284.043,183.526 291.599,186.225" style="fill:none;stroke:black;stroke-width:3.76px;"/>
        </g>
    </g>
</svg>
